<svg xmlns="http://www.w3.org/2000/svg" viewBox="0 0 57.5 54.8"><defs><style>.cls-1{fill:#bae2f8;}.cls-2{fill:#54c2f0;}</style></defs><g id="レイヤー_2" data-name="レイヤー 2"><g id="_1" data-name="1"><path class="cls-1" d="M28.75,0c-6.1,0-11,1.46-11,3.26s4.94,3.26,11,3.26,11-1.46,11-3.26S34.85,0,28.75,0Z"/><path class="cls-2" d="M40.94,8.49C37.68,9.74,32,11.78,28.75,11.78s-8.92-2-12.19-3.29C9.22,5.68,0,10.17,0,26.05a28.75,28.75,0,0,0,57.5,0C57.5,10.17,48.28,5.68,40.94,8.49ZM28.75,36.81c-4.89,0-8.85-1.17-8.85-2.61s4-2.62,8.85-2.62,8.86,1.17,8.86,2.62S33.64,36.81,28.75,36.81Zm0-9.65c-9.63,0-17.45-2.3-17.45-5.15s7.82-5.15,17.45-5.15S46.2,19.16,46.2,22,38.39,27.16,28.75,27.16Z"/></g></g></svg>