<svg xmlns="http://www.w3.org/2000/svg" viewBox="0 0 221.47 54.79"><defs><style>.cls-1{fill:#bae2f8;}.cls-2{fill:#54c2f0;}.cls-3{fill:#626262;}</style></defs><g id="レイヤー_2" data-name="レイヤー 2"><g id="_1" data-name="1"><path class="cls-1" d="M28.75,0c-6.1,0-11,1.46-11,3.26s4.94,3.25,11,3.25,11-1.45,11-3.25S34.85,0,28.75,0Z"/><path class="cls-2" d="M40.94,8.49C37.68,9.74,32,11.77,28.75,11.77s-8.92-2-12.19-3.28C9.22,5.68,0,10.17,0,26a28.75,28.75,0,0,0,57.5,0C57.5,10.17,48.28,5.68,40.94,8.49ZM28.75,36.81c-4.89,0-8.85-1.17-8.85-2.62s4-2.61,8.85-2.61,8.86,1.17,8.86,2.61S33.64,36.81,28.75,36.81Zm0-9.66c-9.63,0-17.45-2.3-17.45-5.14s7.82-5.15,17.45-5.15S46.2,19.16,46.2,22,38.39,27.15,28.75,27.15Z"/><path class="cls-3" d="M84.24,10.9V42.12a3.83,3.83,0,0,1-3.82,4,3.9,3.9,0,0,1-3.82-4V10.9A3.92,3.92,0,0,1,80.42,7,3.81,3.81,0,0,1,84.24,10.9Z"/><path class="cls-3" d="M118.32,20.62a4.74,4.74,0,0,1-1.12,3l-13,15.23h10.32a3.53,3.53,0,0,1,3.82,3.49,3.58,3.58,0,0,1-3.82,3.47H99.17c-2.71,0-4.43-1.72-4.43-4.07a4.68,4.68,0,0,1,1.12-3l13-15.31H99.19c-2.07,0-3.82-1.28-3.82-3.38a3.61,3.61,0,0,1,3.82-3.53H113.9C116.6,16.52,118.32,18.25,118.32,20.62Z"/><path class="cls-3" d="M153.38,20.16V40.62a2.71,2.71,0,0,1-1.31,2.65,20.86,20.86,0,0,1-11.52,3c-7.88,0-12.44-4.28-12.44-12V20.24c0-2.27,1.31-4,3.66-4a3.81,3.81,0,0,1,3.79,4V34.1c0,3.22,2.07,4.91,5.16,4.91a9.75,9.75,0,0,0,5.21-1.39V20.16a3.72,3.72,0,0,1,3.71-3.88A3.78,3.78,0,0,1,153.38,20.16Z"/><path class="cls-3" d="M203.22,27.74V42.23a3.72,3.72,0,1,1-7.44,0v-14c0-3.19-1.26-4.86-4.34-4.86A7.19,7.19,0,0,0,187.07,25a26.24,26.24,0,0,1,.14,3V42.23a3.73,3.73,0,1,1-7.45,0V28.1c0-3.31-1.47-4.78-4.39-4.78a8.69,8.69,0,0,0-4.21,1.34V42.23a3.74,3.74,0,0,1-3.76,3.85,3.8,3.8,0,0,1-3.71-3.85V21.65A2.85,2.85,0,0,1,165,19a19.88,19.88,0,0,1,10.07-3,10.34,10.34,0,0,1,7.86,3,15.73,15.73,0,0,1,9-3C199.9,16,203.22,20.29,203.22,27.74Z"/><path class="cls-3" d="M221.47,9.37a4.05,4.05,0,0,1-4,4.05,4,4,0,0,1-3.93-4.05,3.87,3.87,0,0,1,3.93-3.95A3.94,3.94,0,0,1,221.47,9.37Zm-.22,10.73V42.23a3.73,3.73,0,1,1-7.45,0V20.1a3.71,3.71,0,0,1,3.71-3.82A3.76,3.76,0,0,1,221.25,20.1Z"/></g></g></svg>
