<?xml version="1.0" standalone="no"?>
<!DOCTYPE svg PUBLIC "-//W3C//DTD SVG 20010904//EN"
 "http://www.w3.org/TR/2001/REC-SVG-20010904/DTD/svg10.dtd">
<svg version="1.0" xmlns="http://www.w3.org/2000/svg"
 width="719.000000pt" height="719.000000pt" viewBox="0 0 719.000000 719.000000"
 preserveAspectRatio="xMidYMid meet">
<metadata>
Created by potrace 1.14, written by Peter Selinger 2001-2017
</metadata>
<g transform="translate(0.000000,719.000000) scale(0.100000,-0.100000)"
fill="#000000" stroke="none">
<path d="M3299 7016 c-2 -2 -44 -7 -93 -11 -49 -4 -98 -8 -110 -10 -11 -2 -43
-6 -71 -10 -27 -3 -88 -13 -135 -21 -47 -9 -96 -18 -110 -21 -14 -2 -73 -18
-133 -34 -242 -67 -394 -159 -426 -257 -59 -178 305 -356 854 -418 33 -3 69
-8 79 -10 46 -8 274 -18 441 -18 234 0 490 17 609 40 11 2 38 6 61 9 98 13
289 60 392 96 202 71 311 159 318 257 4 62 -39 121 -137 183 -86 56 -331 139
-478 163 -19 3 -46 8 -60 11 -14 3 -43 7 -65 10 -22 4 -49 8 -60 9 -11 2 -54
7 -95 11 -41 4 -86 10 -100 12 -30 5 -676 14 -681 9z"/>
<path d="M1395 6049 c-95 -14 -111 -17 -214 -44 -35 -9 -85 -26 -110 -37 -25
-11 -71 -31 -101 -45 -140 -63 -359 -241 -477 -388 -84 -104 -223 -340 -261
-442 -6 -15 -23 -59 -37 -98 -43 -112 -91 -274 -109 -365 -2 -14 -11 -56 -19
-95 -14 -66 -19 -99 -32 -205 -3 -25 -8 -54 -10 -65 -27 -132 -27 -767 0 -945
3 -19 12 -78 20 -130 19 -119 24 -146 35 -190 5 -19 11 -46 14 -60 24 -127
114 -402 187 -573 234 -547 546 -966 1025 -1377 243 -209 642 -443 974 -573
221 -86 500 -165 675 -191 23 -4 52 -8 65 -11 14 -3 36 -7 50 -9 14 -3 52 -8
85 -12 33 -3 80 -8 105 -11 79 -9 552 -11 630 -3 41 5 101 11 133 14 334 34
753 153 1087 308 209 97 430 228 610 361 52 39 97 73 100 76 3 3 39 33 80 66
164 131 409 386 556 580 169 223 342 517 436 740 9 22 27 63 38 90 40 92 111
309 145 442 35 132 40 158 51 223 3 19 9 53 14 75 5 22 12 69 16 105 3 36 8
67 10 70 10 19 19 242 19 475 -1 239 -4 316 -20 455 -15 125 -17 146 -20 150
-2 3 -7 33 -10 65 -4 33 -9 63 -11 67 -2 3 -13 48 -24 100 -11 51 -22 98 -24
103 -1 6 -8 30 -15 55 -120 428 -349 786 -643 1003 -42 31 -79 57 -82 57 -3 0
-28 14 -56 31 -104 64 -305 133 -450 154 -103 15 -286 13 -400 -5 -140 -21
-190 -36 -395 -112 -88 -33 -194 -71 -235 -85 -41 -14 -86 -30 -100 -36 -14
-5 -30 -11 -36 -12 -7 -2 -45 -14 -85 -28 -156 -54 -412 -128 -529 -153 -43
-10 -39 -9 -75 -17 -44 -11 -74 -16 -125 -23 -25 -3 -54 -8 -65 -11 -11 -3
-83 -6 -160 -8 -165 -4 -276 10 -494 62 -36 8 -72 17 -80 19 -194 45 -565 168
-994 328 -82 31 -199 63 -287 77 -84 14 -298 18 -375 8z m2685 -1152 c14 -3
70 -8 124 -12 55 -4 107 -8 115 -10 9 -2 45 -6 81 -9 36 -4 90 -11 120 -16 30
-5 77 -12 104 -15 28 -3 79 -12 115 -20 36 -7 82 -16 102 -19 20 -3 98 -21
175 -41 565 -145 840 -361 736 -577 -75 -153 -325 -288 -729 -393 -72 -19
-144 -37 -160 -39 -15 -3 -39 -8 -53 -11 -48 -9 -85 -16 -115 -21 -82 -13
-225 -34 -270 -39 -27 -3 -63 -7 -80 -9 -16 -2 -66 -7 -110 -11 -44 -4 -96 -8
-115 -10 -206 -21 -865 -21 -1042 0 -14 2 -68 6 -119 10 -52 4 -100 8 -109 10
-8 2 -44 6 -80 10 -36 3 -72 8 -80 10 -8 2 -39 7 -69 10 -30 4 -63 9 -75 11
-12 2 -61 11 -110 20 -50 8 -128 24 -175 36 -47 11 -93 22 -101 23 -182 42
-428 140 -550 220 -289 188 -252 403 99 583 93 48 335 138 424 158 9 2 25 6
35 8 47 12 241 55 267 59 172 29 237 39 275 43 25 2 56 7 70 9 14 3 59 7 100
11 41 3 89 7 105 9 17 3 84 7 150 11 66 3 122 8 124 10 5 5 791 -4 821 -9z
m-140 -1840 c14 -3 52 -8 85 -12 32 -4 67 -8 76 -10 9 -2 32 -6 50 -9 161 -25
346 -84 435 -137 62 -37 114 -99 114 -135 0 -62 -53 -122 -152 -171 -56 -28
-167 -70 -208 -78 -8 -2 -37 -9 -65 -15 -27 -6 -59 -13 -70 -16 -11 -2 -31 -6
-45 -9 -14 -2 -47 -7 -75 -11 -27 -3 -57 -8 -66 -9 -138 -26 -681 -26 -849 0
-14 2 -45 7 -70 10 -216 29 -439 102 -540 176 -121 90 -80 203 105 288 59 28
144 58 181 65 10 2 46 11 79 19 59 15 92 21 170 32 22 4 51 8 64 10 12 2 60 7
105 11 44 3 83 8 85 10 5 5 563 -4 591 -9z"/>
</g>
</svg>
